<svg width="66" height="67" viewBox="0 0 66 67" fill="none" xmlns="http://www.w3.org/2000/svg">
<path d="M10.3125 33.5H55.6875" stroke="white" stroke-width="2" stroke-linecap="round" stroke-linejoin="round"/>
<path d="M10.3125 33.5H55.6875" stroke="black" stroke-opacity="0.2" stroke-width="2" stroke-linecap="round" stroke-linejoin="round"/>
<path d="M33 21.125C35.2782 21.125 37.125 19.2782 37.125 17C37.125 14.7218 35.2782 12.875 33 12.875C30.7218 12.875 28.875 14.7218 28.875 17C28.875 19.2782 30.7218 21.125 33 21.125Z" fill="white"/>
<path d="M33 21.125C35.2782 21.125 37.125 19.2782 37.125 17C37.125 14.7218 35.2782 12.875 33 12.875C30.7218 12.875 28.875 14.7218 28.875 17C28.875 19.2782 30.7218 21.125 33 21.125Z" fill="black" fill-opacity="0.2"/>
<path d="M33 54.125C35.2782 54.125 37.125 52.2782 37.125 50C37.125 47.7218 35.2782 45.875 33 45.875C30.7218 45.875 28.875 47.7218 28.875 50C28.875 52.2782 30.7218 54.125 33 54.125Z" fill="white"/>
<path d="M33 54.125C35.2782 54.125 37.125 52.2782 37.125 50C37.125 47.7218 35.2782 45.875 33 45.875C30.7218 45.875 28.875 47.7218 28.875 50C28.875 52.2782 30.7218 54.125 33 54.125Z" fill="black" fill-opacity="0.2"/>
</svg>

